<svg width="137" height="61" fill="none" xmlns="http://www.w3.org/2000/svg"><path d="M6.91 19.935c.467 0 .898-.093 1.295-.28.42-.21 1.003-.583 1.75-1.12V12.97c-.49.163-.957.315-1.4.455-.42.14-.782.268-1.085.385-1.167.467-1.972 1.015-2.415 1.645-.42.607-.63 1.237-.63 1.89 0 .91.233 1.575.7 1.995.49.397 1.085.595 1.785.595zm6.615 2.485c-.933 0-1.692-.233-2.275-.7-.583-.467-.98-1.108-1.19-1.925-.42.443-.817.84-1.19 1.19a7.63 7.63 0 01-1.155.84c-.373.21-.782.373-1.225.49a5.923 5.923 0 01-1.505.175 6.05 6.05 0 01-1.855-.28 4.17 4.17 0 01-1.47-.84 3.858 3.858 0 01-.98-1.365c-.233-.56-.35-1.202-.35-1.925 0-.56.082-1.085.245-1.575.187-.49.513-.957.98-1.4.49-.467 1.132-.91 1.925-1.33.817-.42 1.855-.828 3.115-1.225.467-.163.992-.327 1.575-.49.583-.163 1.178-.327 1.785-.49v-.98c0-.817-.058-1.493-.175-2.03-.093-.537-.268-.957-.525-1.26a1.725 1.725 0 00-.945-.665c-.397-.14-.875-.21-1.435-.21a7.792 7.792 0 00-1.435.14L5.02 8.49c-.117.84-.373 1.458-.77 1.855-.373.397-.852.595-1.435.595-1.12 0-1.773-.525-1.96-1.575.21-1.4.957-2.52 2.24-3.36 1.283-.84 2.998-1.26 5.145-1.26 2.053 0 3.535.49 4.445 1.47.933.957 1.4 2.578 1.4 4.865v7.63c0 .56.082.968.245 1.225.187.233.443.35.77.35.443 0 .852-.257 1.225-.77l.805.7c-.42.817-.922 1.388-1.505 1.715-.56.327-1.26.49-2.1.49zm6.531-.42v-1.435l2.24-.42c.023-.887.035-1.832.035-2.835V12.795v-1.26c0-.373-.012-.712-.035-1.015 0-.327-.012-.642-.035-.945 0-.303-.012-.63-.035-.98l-2.45-.315V6.95l5.845-2.205.56.35.385 4.27c.513-1.517 1.225-2.66 2.135-3.43.91-.793 1.82-1.19 2.73-1.19.63 0 1.202.163 1.715.49.513.327.863.793 1.05 1.4-.023.887-.233 1.563-.63 2.03-.397.467-.945.7-1.645.7-.863 0-1.657-.42-2.38-1.26l-.315-.35c-1.237 1.027-2.123 2.473-2.66 4.34v5.145c0 .98.012 1.902.035 2.765l2.87.56V22h-9.415zm23.662-4.305c0 .863.163 1.493.49 1.89.35.397.805.595 1.365.595.35 0 .688-.07 1.015-.21.35-.14.723-.362 1.12-.665l.84.875a4.683 4.683 0 01-1.855 1.715c-.747.397-1.668.595-2.765.595-1.4 0-2.497-.35-3.29-1.05-.793-.7-1.19-1.82-1.19-3.36v-1.505c.023-.49.035-1.073.035-1.75V7.37h-2.59V5.55l2.835-.35 1.33-4.795h2.835l-.14 4.83h4.2V7.37h-4.235v10.325z" fill="#404A6B"/><path d="M27.483 58.755c1.913 0 3.372-.35 4.375-1.05 1.003-.677 1.505-1.505 1.505-2.485 0-.77-.268-1.423-.805-1.96-.537-.513-1.435-.77-2.695-.77h-4.095c-.257 0-.502-.012-.735-.035a7.04 7.04 0 01-.7-.035c-.49.537-.84 1.05-1.05 1.54a4.045 4.045 0 00-.315 1.61c0 1.143.397 1.96 1.19 2.45.817.49 1.925.735 3.325.735zm-6.58-18.095c0-.91.152-1.715.455-2.415.327-.723.77-1.33 1.33-1.82a6.138 6.138 0 012.03-1.12 7.925 7.925 0 012.52-.385c1.843 0 3.325.455 4.445 1.365l3.955-1.365.525.35v2.205h-3.43c.537.863.805 1.925.805 3.185 0 .91-.163 1.727-.49 2.45a4.785 4.785 0 01-1.33 1.785c-.56.49-1.225.863-1.995 1.12-.77.257-1.61.385-2.52.385-.91 0-1.773-.128-2.59-.385-.583.747-.875 1.493-.875 2.24 0 .467.128.84.385 1.12.28.28.828.42 1.645.42h4.585c1.937 0 3.36.397 4.27 1.19.91.793 1.365 1.902 1.365 3.325 0 .77-.187 1.517-.56 2.24-.35.723-.887 1.365-1.61 1.925-.723.56-1.633 1.015-2.73 1.365-1.073.35-2.322.525-3.745.525-2.543 0-4.387-.397-5.53-1.19-1.143-.77-1.715-1.785-1.715-3.045 0-.747.245-1.447.735-2.1.49-.63 1.388-1.26 2.695-1.89-1.54-.42-2.31-1.307-2.31-2.66 0-.537.175-1.108.525-1.715.35-.63.968-1.353 1.855-2.17a5.27 5.27 0 01-1.995-1.925c-.467-.817-.7-1.82-.7-3.01zm6.37-4.305c-1.12 0-1.995.408-2.625 1.225-.607.793-.91 1.832-.91 3.115 0 1.283.292 2.322.875 3.115.583.793 1.423 1.19 2.52 1.19 1.12 0 1.995-.408 2.625-1.225.63-.84.945-1.913.945-3.22 0-1.26-.303-2.275-.91-3.045-.583-.77-1.423-1.155-2.52-1.155zm18.237 13.79c.303 0 .571-.023.805-.07.256-.07.525-.175.805-.315s.595-.327.945-.56c.373-.233.805-.525 1.294-.875v-5.39c-.606.187-1.201.373-1.785.56-.583.187-1.061.35-1.434.49-.77.303-1.377.607-1.82.91-.444.303-.794.618-1.05.945a2.383 2.383 0 00-.456.91c-.07.28-.105.548-.105.805 0 .933.257 1.598.77 1.995.537.397 1.214.595 2.03.595zm7.07 2.205c-.84 0-1.54-.245-2.1-.735s-.91-1.143-1.05-1.96c-.49.467-.934.875-1.33 1.225-.397.35-.794.642-1.19.875a5.108 5.108 0 01-1.225.525c-.42.117-.887.175-1.4.175-.63 0-1.237-.093-1.82-.28a4.916 4.916 0 01-1.506-.805 4.262 4.262 0 01-1.015-1.365c-.233-.56-.35-1.202-.35-1.925 0-.49.082-.957.245-1.4.164-.467.456-.91.876-1.33.443-.443 1.038-.875 1.784-1.295.747-.42 1.715-.84 2.905-1.26a45.512 45.512 0 011.855-.595c.7-.21 1.4-.397 2.1-.56v-.875c0-.84-.07-1.528-.21-2.065-.116-.56-.315-.992-.595-1.295a1.9 1.9 0 00-1.015-.665c-.396-.14-.886-.21-1.47-.21-.256 0-.548.012-.875.035a6.185 6.185 0 00-1.015.175l-.665 2.275c-.326 1.12-.933 1.68-1.82 1.68-.98 0-1.528-.478-1.645-1.435.327-1.33 1.097-2.38 2.31-3.15 1.214-.793 2.719-1.19 4.515-1.19 1.844 0 3.209.467 4.095 1.4.887.91 1.33 2.473 1.33 4.69v7.455c0 .747.105 1.283.316 1.61.233.303.548.455.944.455.304 0 .56-.07.77-.21.21-.14.409-.327.596-.56l.7.77c-.42.677-.887 1.155-1.4 1.435a3.49 3.49 0 01-1.645.385zm5.872-24.64l5.46-1.575.49.28-.14 4.97V47.45l.07 2.8 2.8.49V52h-8.68v-1.26l2.8-.49c.023-.957.035-1.89.035-2.8.023-.933.035-1.867.035-2.8V29.285l-2.87-.35V27.71zm12.175 0l5.46-1.575.49.28-.14 4.97V47.45l.07 2.8 2.8.49V52h-8.68v-1.26l2.8-.49c.023-.957.035-1.89.035-2.8.023-.933.035-1.867.035-2.8V29.285l-2.87-.35V27.71zm20.925 7.21c.91 0 1.761.152 2.555.455a5.826 5.826 0 012.065 1.33c.583.56 1.038 1.26 1.365 2.1.35.84.525 1.785.525 2.835 0 .397-.024.77-.07 1.12a5.837 5.837 0 01-.175.84H86.652c.046 2.17.583 3.815 1.61 4.935 1.026 1.097 2.38 1.645 4.06 1.645 1.12 0 2.053-.222 2.8-.665.746-.443 1.435-1.038 2.065-1.785l.84.665c-.654 1.26-1.54 2.252-2.66 2.975-1.097.723-2.45 1.085-4.06 1.085-1.19 0-2.264-.198-3.22-.595a6.956 6.956 0 01-2.45-1.68c-.677-.747-1.202-1.657-1.575-2.73-.374-1.073-.56-2.275-.56-3.605s.21-2.543.63-3.64c.443-1.097 1.026-2.03 1.75-2.8a7.78 7.78 0 012.555-1.82 7.471 7.471 0 013.115-.665zm-.21 1.61c-.49 0-.992.105-1.505.315-.49.187-.957.513-1.4.98-.42.443-.794 1.027-1.12 1.75-.304.7-.502 1.552-.595 2.555h6.37c.84 0 1.388-.175 1.645-.525.28-.35.42-.782.42-1.295 0-.49-.105-.957-.315-1.4a3.609 3.609 0 00-.805-1.225 3.661 3.661 0 00-1.19-.84 3.625 3.625 0 00-1.505-.315zM102.989 52v-1.26l2.52-.455c.023-.887.035-1.843.035-2.87.023-1.05.035-1.972.035-2.765v-1.68c0-.957-.012-1.75-.035-2.38-.024-.63-.047-1.295-.07-1.995l-2.765-.315v-1.225l4.9-2.135.525.35.385 4.13c.583-1.4 1.33-2.497 2.24-3.29.91-.793 1.843-1.19 2.8-1.19.536 0 1.038.117 1.505.35.466.233.805.548 1.015.945 0 1.703-.689 2.555-2.065 2.555-.397 0-.77-.07-1.12-.21a4.449 4.449 0 01-1.015-.665l-.42-.385a7.234 7.234 0 00-1.75 1.925c-.467.723-.852 1.587-1.155 2.59v5.32c.023 1.027.046 1.983.07 2.87l2.87.525V52h-8.505zm18.641 8.715c-.887 0-1.645-.222-2.275-.665-.63-.42-.945-.968-.945-1.645.117-.513.397-.898.84-1.155a3.074 3.074 0 011.505-.385c.467 0 .898.093 1.295.28.397.21.828.56 1.295 1.05l.175.175a8.54 8.54 0 001.89-2.275c.513-.887.933-1.808 1.26-2.765l.14-.42-6.335-15.995-1.925-.28v-1.26h8.4v1.295l-3.08.35 4.375 11.935 4.305-11.9-3.045-.42v-1.26h6.825v1.26l-1.89.385-5.635 14.875c-.583 1.54-1.155 2.87-1.715 3.99-.537 1.12-1.097 2.03-1.68 2.73-.56.723-1.155 1.248-1.785 1.575a3.924 3.924 0 01-1.995.525z" fill="#000"/></svg>