<svg width="351" height="149" fill="none" xmlns="http://www.w3.org/2000/svg"><path d="M17.34 50.69c1.2 0 2.31-.24 3.33-.72 1.08-.54 2.58-1.5 4.5-2.88V32.78c-1.26.42-2.46.81-3.6 1.17-1.08.36-2.01.69-2.79.99-3 1.2-5.07 2.61-6.21 4.23-1.08 1.56-1.62 3.18-1.62 4.86 0 2.34.6 4.05 1.8 5.13 1.26 1.02 2.79 1.53 4.59 1.53zm17.01 6.39c-2.4 0-4.35-.6-5.85-1.8-1.5-1.2-2.52-2.85-3.06-4.95a73.44 73.44 0 01-3.06 3.06c-.96.84-1.95 1.56-2.97 2.16-.96.54-2.01.96-3.15 1.26-1.14.3-2.43.45-3.87.45-1.68 0-3.27-.24-4.77-.72-1.44-.48-2.7-1.2-3.78-2.16a9.92 9.92 0 01-2.52-3.51c-.6-1.44-.9-3.09-.9-4.95 0-1.44.21-2.79.63-4.05.48-1.26 1.32-2.46 2.52-3.6 1.26-1.2 2.91-2.34 4.95-3.42 2.1-1.08 4.77-2.13 8.01-3.15 1.2-.42 2.55-.84 4.05-1.26 1.5-.42 3.03-.84 4.59-1.26v-2.52c0-2.1-.15-3.84-.45-5.22-.24-1.38-.69-2.46-1.35-3.24-.6-.84-1.41-1.41-2.43-1.71-1.02-.36-2.25-.54-3.69-.54-.54 0-1.14.03-1.8.09-.6.06-1.23.15-1.89.27l-1.08 4.95c-.3 2.16-.96 3.75-1.98 4.77-.96 1.02-2.19 1.53-3.69 1.53-2.88 0-4.56-1.35-5.04-4.05.54-3.6 2.46-6.48 5.76-8.64s7.71-3.24 13.23-3.24c5.28 0 9.09 1.26 11.43 3.78 2.4 2.46 3.6 6.63 3.6 12.51v19.62c0 1.44.21 2.49.63 3.15.48.6 1.14.9 1.98.9 1.14 0 2.19-.66 3.15-1.98l2.07 1.8c-1.08 2.1-2.37 3.57-3.87 4.41-1.44.84-3.24 1.26-5.4 1.26zM51.144 56v-3.69l5.76-1.08c.06-2.28.09-4.71.09-7.29V32.33v-3.24c0-.96-.03-1.83-.09-2.61 0-.84-.03-1.65-.09-2.43 0-.78-.03-1.62-.09-2.52l-6.3-.81V17.3l15.03-5.67 1.44.9.99 10.98c1.32-3.9 3.15-6.84 5.49-8.82 2.34-2.04 4.68-3.06 7.02-3.06 1.62 0 3.09.42 4.41 1.26 1.32.84 2.22 2.04 2.7 3.6-.06 2.28-.6 4.02-1.62 5.22-1.02 1.2-2.43 1.8-4.23 1.8-2.22 0-4.26-1.08-6.12-3.24l-.81-.9c-3.18 2.64-5.46 6.36-6.84 11.16v13.23c0 2.52.03 4.89.09 7.11l7.38 1.44V56h-24.21zm60.845-11.07c0 2.22.42 3.84 1.26 4.86.9 1.02 2.07 1.53 3.51 1.53.9 0 1.77-.18 2.61-.54.9-.36 1.86-.93 2.88-1.71l2.16 2.25c-1.2 1.92-2.79 3.39-4.77 4.41-1.92 1.02-4.29 1.53-7.11 1.53-3.6 0-6.42-.9-8.46-2.7-2.04-1.8-3.06-4.68-3.06-8.64v-3.87c.06-1.26.09-2.76.09-4.5V18.38h-6.66V13.7l7.29-.9 3.42-12.33h7.29l-.36 12.42h10.8v5.49h-10.89v26.55z" fill="#50629E"/><path d="M70.242 143.37c4.92 0 8.67-.9 11.25-2.7 2.58-1.74 3.87-3.87 3.87-6.39 0-1.98-.69-3.66-2.07-5.04-1.38-1.32-3.69-1.98-6.93-1.98h-10.53c-.66 0-1.29-.03-1.89-.09-.6 0-1.2-.03-1.8-.09-1.26 1.38-2.16 2.7-2.7 3.96-.54 1.26-.81 2.64-.81 4.14 0 2.94 1.02 5.04 3.06 6.3 2.1 1.26 4.95 1.89 8.55 1.89zm-16.92-46.53c0-2.34.39-4.41 1.17-6.21.84-1.86 1.98-3.42 3.42-4.68 1.5-1.26 3.24-2.22 5.22-2.88 1.98-.66 4.14-.99 6.48-.99 4.74 0 8.55 1.17 11.43 3.51l10.17-3.51 1.35.9v5.67h-8.82c1.38 2.22 2.07 4.95 2.07 8.19 0 2.34-.42 4.44-1.26 6.3-.78 1.8-1.92 3.33-3.42 4.59-1.44 1.26-3.15 2.22-5.13 2.88-1.98.66-4.14.99-6.48.99-2.34 0-4.56-.33-6.66-.99-1.5 1.92-2.25 3.84-2.25 5.76 0 1.2.33 2.16.99 2.88.72.72 2.13 1.08 4.23 1.08h11.79c4.98 0 8.64 1.02 10.98 3.06s3.51 4.89 3.51 8.55c0 1.98-.48 3.9-1.44 5.76-.9 1.86-2.28 3.51-4.14 4.95-1.86 1.44-4.2 2.61-7.02 3.51-2.76.9-5.97 1.35-9.63 1.35-6.54 0-11.28-1.02-14.22-3.06-2.94-1.98-4.41-4.59-4.41-7.83 0-1.92.63-3.72 1.89-5.4 1.26-1.62 3.57-3.24 6.93-4.86-3.96-1.08-5.94-3.36-5.94-6.84 0-1.38.45-2.85 1.35-4.41.9-1.62 2.49-3.48 4.77-5.58a13.55 13.55 0 01-5.13-4.95c-1.2-2.1-1.8-4.68-1.8-7.74zm16.38-11.07c-2.88 0-5.13 1.05-6.75 3.15-1.56 2.04-2.34 4.71-2.34 8.01s.75 5.97 2.25 8.01 3.66 3.06 6.48 3.06c2.88 0 5.13-1.05 6.75-3.15 1.62-2.16 2.43-4.92 2.43-8.28 0-3.24-.78-5.85-2.34-7.83-1.5-1.98-3.66-2.97-6.48-2.97zm46.894 35.46c.78 0 1.47-.06 2.07-.18.66-.18 1.35-.45 2.07-.81.72-.36 1.53-.84 2.43-1.44.96-.6 2.07-1.35 3.33-2.25v-13.86c-1.56.48-3.09.96-4.59 1.44s-2.73.9-3.69 1.26c-1.98.78-3.54 1.56-4.68 2.34-1.14.78-2.04 1.59-2.7 2.43-.6.78-.99 1.56-1.17 2.34-.18.72-.27 1.41-.27 2.07 0 2.4.66 4.11 1.98 5.13 1.38 1.02 3.12 1.53 5.22 1.53zm18.18 5.67c-2.16 0-3.96-.63-5.4-1.89-1.44-1.26-2.34-2.94-2.7-5.04-1.26 1.2-2.4 2.25-3.42 3.15-1.02.9-2.04 1.65-3.06 2.25-1.02.6-2.07 1.05-3.15 1.35-1.08.3-2.28.45-3.6.45-1.62 0-3.18-.24-4.68-.72-1.44-.48-2.73-1.17-3.87-2.07-1.08-.96-1.95-2.13-2.61-3.51-.6-1.44-.9-3.09-.9-4.95 0-1.26.21-2.46.63-3.6.42-1.2 1.17-2.34 2.25-3.42 1.14-1.14 2.67-2.25 4.59-3.33s4.41-2.16 7.47-3.24c1.38-.48 2.97-.99 4.77-1.53 1.8-.54 3.6-1.02 5.4-1.44v-2.25c0-2.16-.18-3.93-.54-5.31-.3-1.44-.81-2.55-1.53-3.33-.66-.84-1.53-1.41-2.61-1.71-1.02-.36-2.28-.54-3.78-.54-.66 0-1.41.03-2.25.09-.78.06-1.65.21-2.61.45l-1.71 5.85c-.84 2.88-2.4 4.32-4.68 4.32-2.52 0-3.93-1.23-4.23-3.69.84-3.42 2.82-6.12 5.94-8.1 3.12-2.04 6.99-3.06 11.61-3.06 4.74 0 8.25 1.2 10.53 3.6 2.28 2.34 3.42 6.36 3.42 12.06v19.17c0 1.92.27 3.3.81 4.14.6.78 1.41 1.17 2.43 1.17.78 0 1.44-.18 1.98-.54.54-.36 1.05-.84 1.53-1.44l1.8 1.98c-1.08 1.74-2.28 2.97-3.6 3.69-1.26.66-2.67.99-4.23.99zm15.101-63.36l14.04-4.05 1.26.72-.36 12.78v41.31l.18 7.2 7.2 1.26V126h-22.32v-3.24l7.2-1.26c.06-2.46.09-4.86.09-7.2.06-2.4.09-4.8.09-7.2V67.59l-7.38-.9v-3.15zm31.307 0l14.04-4.05 1.26.72-.36 12.78v41.31l.18 7.2 7.2 1.26V126h-22.32v-3.24l7.2-1.26c.06-2.46.09-4.86.09-7.2.06-2.4.09-4.8.09-7.2V67.59l-7.38-.9v-3.15zm53.806 18.54c2.34 0 4.53.39 6.57 1.17 2.04.78 3.81 1.92 5.31 3.42 1.5 1.44 2.67 3.24 3.51 5.4.9 2.16 1.35 4.59 1.35 7.29 0 1.02-.06 1.98-.18 2.88-.12.84-.27 1.56-.45 2.16h-28.71c.12 5.58 1.5 9.81 4.14 12.69 2.64 2.82 6.12 4.23 10.44 4.23 2.88 0 5.28-.57 7.2-1.71 1.92-1.14 3.69-2.67 5.31-4.59l2.16 1.71c-1.68 3.24-3.96 5.79-6.84 7.65-2.82 1.86-6.3 2.79-10.44 2.79-3.06 0-5.82-.51-8.28-1.53-2.46-1.02-4.56-2.46-6.3-4.32-1.74-1.92-3.09-4.26-4.05-7.02s-1.44-5.85-1.44-9.27.54-6.54 1.62-9.36c1.14-2.82 2.64-5.22 4.5-7.2 1.92-2.04 4.11-3.6 6.57-4.68 2.52-1.14 5.19-1.71 8.01-1.71zm-.54 4.14c-1.26 0-2.55.27-3.87.81-1.26.48-2.46 1.32-3.6 2.52-1.08 1.14-2.04 2.64-2.88 4.5-.78 1.8-1.29 3.99-1.53 6.57h16.38c2.16 0 3.57-.45 4.23-1.35.72-.9 1.08-2.01 1.08-3.33 0-1.26-.27-2.46-.81-3.6a9.279 9.279 0 00-2.07-3.15c-.84-.9-1.86-1.62-3.06-2.16a9.32 9.32 0 00-3.87-.81zM264.399 126v-3.24l6.48-1.17c.06-2.28.09-4.74.09-7.38.06-2.7.09-5.07.09-7.11v-4.32c0-2.46-.03-4.5-.09-6.12s-.12-3.33-.18-5.13l-7.11-.81v-3.15l12.6-5.49 1.35.9.99 10.62c1.5-3.6 3.42-6.42 5.76-8.46 2.34-2.04 4.74-3.06 7.2-3.06 1.38 0 2.67.3 3.87.9 1.2.6 2.07 1.41 2.61 2.43 0 4.38-1.77 6.57-5.31 6.57-1.02 0-1.98-.18-2.88-.54-.9-.42-1.77-.99-2.61-1.71l-1.08-.99c-1.8 1.38-3.3 3.03-4.5 4.95-1.2 1.86-2.19 4.08-2.97 6.66v13.68c.06 2.64.12 5.1.18 7.38l7.38 1.35V126h-21.87zm47.936 22.41c-2.28 0-4.23-.57-5.85-1.71-1.62-1.08-2.43-2.49-2.43-4.23.3-1.32 1.02-2.31 2.16-2.97 1.2-.66 2.49-.99 3.87-.99 1.2 0 2.31.24 3.33.72 1.02.54 2.13 1.44 3.33 2.7l.45.45c1.92-1.62 3.54-3.57 4.86-5.85 1.32-2.28 2.4-4.65 3.24-7.11l.36-1.08-16.29-41.13-4.95-.72v-3.24h21.6v3.33l-7.92.9 11.25 30.69 11.07-30.6-7.83-1.08v-3.24h17.55v3.24l-4.86.99-14.49 38.25c-1.5 3.96-2.97 7.38-4.41 10.26-1.38 2.88-2.82 5.22-4.32 7.02-1.44 1.86-2.97 3.21-4.59 4.05-1.56.9-3.27 1.35-5.13 1.35z" fill="#F7F7F7"/></svg>